<svg xmlns="http://www.w3.org/2000/svg" viewBox="0 0 2017.32 499.48"><defs><style>.cls-1{fill:#020202;}</style></defs><g id="Capa_2" data-name="Capa 2"><g id="Capa_1-2" data-name="Capa 1"><path class="cls-1" d="M76.63,118.67a39.14,39.14,0,1,1,38.94-43.09h37.58a76.7,76.7,0,1,0,0,7.35H115.61A39.15,39.15,0,0,1,76.63,118.67Z"/><rect class="cls-1" x="954.02" y="146.14" width="77.06" height="342.11"/><rect class="cls-1" x="1105.57" y="0.48" width="77.06" height="487.77"/><rect class="cls-1" x="1257.12" y="0.48" width="77.06" height="487.77"/><polygon class="cls-1" points="1041.37 41.66 1040.78 38.3 1039.89 35.05 1038.81 31.89 1037.52 28.73 1035.94 25.77 1034.27 22.8 1032.39 20.04 1030.32 17.38 1027.95 14.91 1025.58 12.54 1023.01 10.37 1020.25 8.39 1017.38 6.61 1014.42 5.04 1011.36 3.65 1008.11 2.47 1004.95 1.48 1001.59 0.79 998.23 0.3 994.88 0 991.52 0 988.16 0.1 984.81 0.59 981.45 1.19 978.19 2.07 975.03 3.16 971.87 4.44 968.91 6.02 965.95 7.7 963.19 9.58 960.52 11.75 958.05 14.02 955.68 16.39 953.51 18.95 951.54 21.72 949.76 24.58 948.18 27.54 946.8 30.6 945.61 33.86 944.63 37.02 943.94 40.38 943.44 43.73 943.15 47.09 943.15 50.45 943.25 53.8 943.74 57.16 944.33 60.52 945.22 63.77 946.31 66.93 947.59 70.09 949.17 73.05 950.85 76.02 952.72 78.78 954.8 81.44 957.16 83.91 959.53 86.28 962.1 88.45 964.87 90.43 967.73 92.21 970.69 93.79 973.75 95.17 977.01 96.35 980.17 97.34 983.52 98.03 986.88 98.52 990.24 98.82 993.59 98.82 996.95 98.72 1000.31 98.23 1003.66 97.64 1006.92 96.75 1010.08 95.66 1013.24 94.38 1016.2 92.8 1019.16 91.12 1021.93 89.24 1024.59 87.17 1027.06 84.9 1029.43 82.43 1031.6 79.87 1033.58 77.1 1035.35 74.24 1036.93 71.28 1038.31 68.22 1039.5 64.96 1040.49 61.8 1041.18 58.44 1041.67 55.09 1041.97 51.73 1041.97 48.37 1041.87 45.02 1041.37 41.66"/><path class="cls-1" d="M335.54,215a102.08,102.08,0,0,1,94.72,64.06l74.62-29.75A182.39,182.39,0,0,0,329.1,134.82c-94.75,3.27-172.11,80.27-175.79,175a182.4,182.4,0,0,0,350,79L429.49,357a102.08,102.08,0,0,1-101.23,61.9c-50.5-3.5-91.4-44.71-94.57-95.22A102.07,102.07,0,0,1,335.54,215Z"/><polygon class="cls-1" points="1523.79 245.34 1523.79 487.46 1599.42 487.46 1599.42 245.34 1599.42 144.29 1523.79 144.29 1523.79 245.34"/><polygon class="cls-1" points="1609.51 41.36 1608.93 38.07 1608.05 34.87 1606.99 31.77 1605.73 28.67 1604.18 25.76 1602.53 22.86 1600.69 20.14 1598.66 17.53 1596.33 15.11 1594.01 12.78 1591.49 10.65 1588.78 8.71 1585.97 6.97 1583.06 5.42 1580.06 4.06 1576.86 2.9 1573.76 1.93 1570.47 1.25 1567.17 0.77 1563.88 0.48 1560.59 0.48 1557.29 0.58 1554 1.06 1550.7 1.64 1547.51 2.51 1544.41 3.58 1541.31 4.84 1538.4 6.39 1535.5 8.04 1532.78 9.88 1530.17 12.01 1527.75 14.23 1525.42 16.56 1523.29 19.08 1521.35 21.79 1519.61 24.6 1518.06 27.51 1516.7 30.51 1515.54 33.71 1514.57 36.81 1513.89 40.1 1513.41 43.39 1513.12 46.69 1513.12 49.98 1513.22 53.27 1513.7 56.57 1514.28 59.86 1515.15 63.06 1516.22 66.16 1517.48 69.26 1519.03 72.17 1520.67 75.07 1522.52 77.78 1524.55 80.4 1526.88 82.82 1529.2 85.15 1531.72 87.28 1534.43 89.22 1537.24 90.96 1540.15 92.51 1543.15 93.87 1546.35 95.03 1549.45 96 1552.74 96.67 1556.03 97.16 1559.33 97.45 1562.62 97.45 1565.91 97.35 1569.21 96.87 1572.5 96.29 1575.7 95.42 1578.8 94.35 1581.9 93.09 1584.81 91.54 1587.71 89.89 1590.42 88.05 1593.04 86.02 1595.46 83.79 1597.79 81.37 1599.92 78.85 1601.86 76.14 1603.6 73.33 1605.15 70.42 1606.5 67.42 1607.67 64.22 1608.64 61.12 1609.31 57.83 1609.8 54.53 1610.09 51.24 1610.09 47.95 1609.99 44.65 1609.51 41.36"/><path class="cls-1" d="M734.51,135.84c-42.65-4.77-82.54,9.33-114.64,34.67V.48h-75V488.09H545v.16h75V307.79q0-3.82.22-7.73c3.23-47.14,38.7-84.28,85.16-89,56.91-5.77,99.55,39.24,99.69,95.61V488.25h75V305.53q-.08-8.34-.93-16.85C870.91,209.05,813.14,144.64,734.51,135.84Z"/><path class="cls-1" d="M2017.32,219.91V144.29H1749.54V134.11h0V.48h-75.62V134.11h0V327.59a171.69,171.69,0,0,0,343.38,0V293.42h-75.43v34.17a96.26,96.26,0,0,1-192.52,0V219.91Z"/></g></g></svg>